<mxfile host="app.diagrams.net" agent="Mozilla/5.0 (Windows NT 10.0; Win64; x64) AppleWebKit/537.36 (KHTML, like Gecko) Chrome/134.0.0.0 Safari/537.36" version="26.2.8" pages="2">
  <diagram name="Page-1" id="929967ad-93f9-6ef4-fab6-5d389245f69c">
    <mxGraphModel dx="1313" dy="638" grid="1" gridSize="10" guides="1" tooltips="1" connect="1" arrows="1" fold="1" page="1" pageScale="1.5" pageWidth="1169" pageHeight="826" background="none" math="0" shadow="0">
      <root>
        <mxCell id="0" style=";html=1;" />
        <mxCell id="1" style=";html=1;" parent="0" />
        <mxCell id="1672d66443f91eb5-1" value="&lt;p style=&quot;margin: 0px ; margin-top: 4px ; margin-left: 10px ; text-align: left&quot;&gt;&lt;br&gt;&lt;/p&gt;" style="html=1;strokeWidth=1;shape=mxgraph.sysml.package;html=1;overflow=fill;whiteSpace=wrap;fillColor=none;gradientColor=none;fontSize=12;align=center;labelX=327.64;" parent="1" vertex="1">
          <mxGeometry x="410" y="300" width="1120" height="650" as="geometry" />
        </mxCell>
        <mxCell id="1672d66443f91eb5-5" value="&lt;p&gt;User&amp;nbsp;&lt;/p&gt;" style="shape=rect;html=1;overflow=fill;whiteSpace=wrap;align=center;fontStyle=1" parent="1" vertex="1">
          <mxGeometry x="720" y="360" width="170" height="70" as="geometry" />
        </mxCell>
        <mxCell id="1672d66443f91eb5-6" value="&lt;p&gt;Theme&lt;/p&gt;" style="shape=rect;html=1;overflow=fill;whiteSpace=wrap;align=center;fontStyle=1" parent="1" vertex="1">
          <mxGeometry x="1070" y="360" width="160" height="70" as="geometry" />
        </mxCell>
        <mxCell id="1672d66443f91eb5-7" value="&lt;p&gt;Playlist&lt;/p&gt;" style="shape=rect;html=1;overflow=fill;whiteSpace=wrap;align=center;fontStyle=1" parent="1" vertex="1">
          <mxGeometry x="530" y="500" width="160" height="70" as="geometry" />
        </mxCell>
        <mxCell id="1672d66443f91eb5-8" value="&lt;p&gt;Input Analyzer&lt;/p&gt;" style="shape=rect;html=1;overflow=fill;whiteSpace=wrap;align=center;fontStyle=1;fillColor=light-dark(#FFFFFF,#0066CC);" parent="1" vertex="1">
          <mxGeometry x="990" y="700" width="160" height="70" as="geometry" />
        </mxCell>
        <mxCell id="1672d66443f91eb5-9" value="&lt;p&gt;Input&lt;/p&gt;" style="shape=rect;html=1;overflow=fill;whiteSpace=wrap;align=center;fontStyle=1" parent="1" vertex="1">
          <mxGeometry x="990" y="480" width="160" height="70" as="geometry" />
        </mxCell>
        <mxCell id="1672d66443f91eb5-23" value="Domain Model - Song Recommendation App&amp;nbsp;" style="text;strokeColor=none;fillColor=none;html=1;fontSize=24;fontStyle=1;verticalAlign=middle;align=center;" parent="1" vertex="1">
          <mxGeometry x="120" y="40" width="1510" height="40" as="geometry" />
        </mxCell>
        <mxCell id="4eQHBa8nJF6XG4fOaytJ-2" value="&lt;p&gt;Song&lt;/p&gt;" style="shape=rect;html=1;overflow=fill;whiteSpace=wrap;align=center;fontStyle=1" vertex="1" parent="1">
          <mxGeometry x="540" y="700" width="160" height="70" as="geometry" />
        </mxCell>
        <mxCell id="4eQHBa8nJF6XG4fOaytJ-5" value="" style="edgeStyle=none;orthogonalLoop=1;jettySize=auto;html=1;rounded=0;entryX=0;entryY=0.5;entryDx=0;entryDy=0;exitX=1;exitY=0.5;exitDx=0;exitDy=0;" edge="1" parent="1" source="1672d66443f91eb5-5" target="1672d66443f91eb5-6">
          <mxGeometry width="80" relative="1" as="geometry">
            <mxPoint x="930" y="394.5" as="sourcePoint" />
            <mxPoint x="1010" y="394.5" as="targetPoint" />
            <Array as="points">
              <mxPoint x="970" y="394.5" />
            </Array>
          </mxGeometry>
        </mxCell>
        <mxCell id="4eQHBa8nJF6XG4fOaytJ-7" value="" style="edgeStyle=none;orthogonalLoop=1;jettySize=auto;html=1;rounded=0;exitX=0.826;exitY=1.014;exitDx=0;exitDy=0;exitPerimeter=0;" edge="1" parent="1" source="1672d66443f91eb5-5" target="1672d66443f91eb5-9">
          <mxGeometry width="80" relative="1" as="geometry">
            <mxPoint x="890" y="460" as="sourcePoint" />
            <mxPoint x="970" y="460" as="targetPoint" />
            <Array as="points" />
          </mxGeometry>
        </mxCell>
        <mxCell id="4eQHBa8nJF6XG4fOaytJ-9" value="" style="edgeStyle=none;orthogonalLoop=1;jettySize=auto;html=1;rounded=0;" edge="1" parent="1" target="1672d66443f91eb5-8">
          <mxGeometry width="80" relative="1" as="geometry">
            <mxPoint x="1050.0037906522125" y="550" as="sourcePoint" />
            <mxPoint x="1057.2782753085642" y="670" as="targetPoint" />
            <Array as="points" />
          </mxGeometry>
        </mxCell>
        <mxCell id="4eQHBa8nJF6XG4fOaytJ-13" value="" style="edgeStyle=none;orthogonalLoop=1;jettySize=auto;html=1;rounded=0;entryX=0.5;entryY=0;entryDx=0;entryDy=0;" edge="1" parent="1" target="4eQHBa8nJF6XG4fOaytJ-2">
          <mxGeometry width="80" relative="1" as="geometry">
            <mxPoint x="620" y="570" as="sourcePoint" />
            <mxPoint x="742.16" y="600" as="targetPoint" />
            <Array as="points" />
          </mxGeometry>
        </mxCell>
        <mxCell id="4eQHBa8nJF6XG4fOaytJ-14" value="" style="edgeStyle=none;orthogonalLoop=1;jettySize=auto;html=1;rounded=0;entryX=0.75;entryY=0;entryDx=0;entryDy=0;" edge="1" parent="1" target="1672d66443f91eb5-7">
          <mxGeometry width="80" relative="1" as="geometry">
            <mxPoint x="759.9954545454545" y="430" as="sourcePoint" />
            <mxPoint x="905.45" y="590" as="targetPoint" />
            <Array as="points" />
          </mxGeometry>
        </mxCell>
        <mxCell id="4eQHBa8nJF6XG4fOaytJ-15" value="" style="edgeStyle=none;orthogonalLoop=1;jettySize=auto;html=1;rounded=0;entryX=1;entryY=0.5;entryDx=0;entryDy=0;exitX=0;exitY=0.25;exitDx=0;exitDy=0;" edge="1" parent="1" source="1672d66443f91eb5-8" target="1672d66443f91eb5-7">
          <mxGeometry width="80" relative="1" as="geometry">
            <mxPoint x="870" y="650" as="sourcePoint" />
            <mxPoint x="950" y="650" as="targetPoint" />
            <Array as="points">
              <mxPoint x="910" y="660" />
            </Array>
          </mxGeometry>
        </mxCell>
        <mxCell id="4eQHBa8nJF6XG4fOaytJ-16" value="customizes" style="text;strokeColor=none;align=center;fillColor=none;html=1;verticalAlign=middle;whiteSpace=wrap;rounded=0;" vertex="1" parent="1">
          <mxGeometry x="950" y="370" width="60" height="30" as="geometry" />
        </mxCell>
        <mxCell id="4eQHBa8nJF6XG4fOaytJ-17" value="Provides" style="text;strokeColor=none;align=center;fillColor=none;html=1;verticalAlign=middle;whiteSpace=wrap;rounded=0;rotation=15;" vertex="1" parent="1">
          <mxGeometry x="910" y="436.46" width="60" height="30" as="geometry" />
        </mxCell>
        <mxCell id="4eQHBa8nJF6XG4fOaytJ-19" value="is analyzed by" style="text;strokeColor=none;align=center;fillColor=none;html=1;verticalAlign=middle;whiteSpace=wrap;rounded=0;rotation=85;" vertex="1" parent="1">
          <mxGeometry x="1020" y="620" width="90" height="30" as="geometry" />
        </mxCell>
        <mxCell id="4eQHBa8nJF6XG4fOaytJ-20" value="generates" style="text;strokeColor=none;align=center;fillColor=none;html=1;verticalAlign=middle;whiteSpace=wrap;rounded=0;rotation=30;" vertex="1" parent="1">
          <mxGeometry x="800.67" y="600" width="117.99" height="30" as="geometry" />
        </mxCell>
        <mxCell id="4eQHBa8nJF6XG4fOaytJ-21" value="contains" style="text;strokeColor=none;align=center;fillColor=none;html=1;verticalAlign=middle;whiteSpace=wrap;rounded=0;rotation=90;" vertex="1" parent="1">
          <mxGeometry x="600" y="619.5" width="60" height="30" as="geometry" />
        </mxCell>
        <mxCell id="4eQHBa8nJF6XG4fOaytJ-22" value="Customizes" style="text;strokeColor=none;align=center;fillColor=none;html=1;verticalAlign=middle;whiteSpace=wrap;rounded=0;rotation=-30;" vertex="1" parent="1">
          <mxGeometry x="660" y="450" width="60" height="30" as="geometry" />
        </mxCell>
        <mxCell id="4eQHBa8nJF6XG4fOaytJ-23" value="1" style="text;strokeColor=none;align=center;fillColor=none;html=1;verticalAlign=middle;whiteSpace=wrap;rounded=0;rotation=15;" vertex="1" parent="1">
          <mxGeometry x="890" y="420" width="20" height="20" as="geometry" />
        </mxCell>
        <mxCell id="4eQHBa8nJF6XG4fOaytJ-25" value="*" style="text;strokeColor=none;align=center;fillColor=none;html=1;verticalAlign=middle;whiteSpace=wrap;rounded=0;" vertex="1" parent="1">
          <mxGeometry x="960" y="450" width="60" height="30" as="geometry" />
        </mxCell>
        <mxCell id="4eQHBa8nJF6XG4fOaytJ-26" value="1" style="text;strokeColor=none;align=center;fillColor=none;html=1;verticalAlign=middle;whiteSpace=wrap;rounded=0;" vertex="1" parent="1">
          <mxGeometry x="880" y="370" width="60" height="30" as="geometry" />
        </mxCell>
        <mxCell id="4eQHBa8nJF6XG4fOaytJ-29" value="&amp;nbsp; &amp;nbsp; &amp;nbsp; &amp;nbsp; 1" style="text;strokeColor=none;align=center;fillColor=none;html=1;verticalAlign=middle;whiteSpace=wrap;rounded=0;" vertex="1" parent="1">
          <mxGeometry x="1000" y="370" width="60" height="30" as="geometry" />
        </mxCell>
        <mxCell id="4eQHBa8nJF6XG4fOaytJ-31" value="1" style="text;strokeColor=none;align=center;fillColor=none;html=1;verticalAlign=middle;whiteSpace=wrap;rounded=0;rotation=90;" vertex="1" parent="1">
          <mxGeometry x="600" y="570" width="60" height="30" as="geometry" />
        </mxCell>
        <mxCell id="4eQHBa8nJF6XG4fOaytJ-32" value="*" style="text;strokeColor=none;align=center;fillColor=none;html=1;verticalAlign=middle;whiteSpace=wrap;rounded=0;rotation=90;" vertex="1" parent="1">
          <mxGeometry x="600" y="670" width="60" height="30" as="geometry" />
        </mxCell>
        <mxCell id="4eQHBa8nJF6XG4fOaytJ-33" value="1" style="text;strokeColor=none;align=center;fillColor=none;html=1;verticalAlign=middle;whiteSpace=wrap;rounded=0;rotation=-30;" vertex="1" parent="1">
          <mxGeometry x="710" y="420" width="60" height="30" as="geometry" />
        </mxCell>
        <mxCell id="4eQHBa8nJF6XG4fOaytJ-37" value="*" style="text;strokeColor=none;align=center;fillColor=none;html=1;verticalAlign=middle;whiteSpace=wrap;rounded=0;rotation=-30;" vertex="1" parent="1">
          <mxGeometry x="620" y="470" width="60" height="30" as="geometry" />
        </mxCell>
        <mxCell id="4eQHBa8nJF6XG4fOaytJ-40" value="1" style="text;strokeColor=none;align=center;fillColor=none;html=1;verticalAlign=middle;whiteSpace=wrap;rounded=0;rotation=90;" vertex="1" parent="1">
          <mxGeometry x="1030" y="550" width="60" height="30" as="geometry" />
        </mxCell>
        <mxCell id="4eQHBa8nJF6XG4fOaytJ-41" value="1" style="text;strokeColor=none;align=center;fillColor=none;html=1;verticalAlign=middle;whiteSpace=wrap;rounded=0;rotation=85;" vertex="1" parent="1">
          <mxGeometry x="1040" y="670" width="60" height="30" as="geometry" />
        </mxCell>
        <mxCell id="4eQHBa8nJF6XG4fOaytJ-42" value="1" style="text;strokeColor=none;align=center;fillColor=none;html=1;verticalAlign=middle;whiteSpace=wrap;rounded=0;rotation=30;" vertex="1" parent="1">
          <mxGeometry x="690" y="520" width="60" height="30" as="geometry" />
        </mxCell>
        <mxCell id="4eQHBa8nJF6XG4fOaytJ-45" value="1" style="text;strokeColor=none;align=center;fillColor=none;html=1;verticalAlign=middle;whiteSpace=wrap;rounded=0;rotation=30;" vertex="1" parent="1">
          <mxGeometry x="940" y="670" width="60" height="30" as="geometry" />
        </mxCell>
      </root>
    </mxGraphModel>
  </diagram>
  <diagram id="34P4V-YR2PL9vUVGhsuw" name="Page-2">
    <mxGraphModel grid="1" page="1" gridSize="10" guides="1" tooltips="1" connect="1" arrows="1" fold="1" pageScale="1" pageWidth="827" pageHeight="1169" math="0" shadow="0">
      <root>
        <mxCell id="0" />
        <mxCell id="1" parent="0" />
      </root>
    </mxGraphModel>
  </diagram>
</mxfile>
